<svg xmlns="http://www.w3.org/2000/svg" width="289" height="214" fill="none" xmlns:v="https://vecta.io/nano"><style><![CDATA[.B{fill:#b5f7cc}.C{fill:#fbd2cb}.D{fill:#404040}.E{fill:#fdc3ba}.F{fill:#6ecf91}.G{fill:#1baa56}.H{fill-rule:evenodd}]]></style><path d="M248.146 150.146c-1.775 3.196-3.787 6.39-6.154 9.23-.59.7-1.183 1.538-1.893 2.25-1.065 1.183-2.25 2.366-3.432 3.55-.828.828-1.775 1.657-2.722 2.485-3.313 2.722-6.864 5.207-10.887 7.337-9.23 4.852-20.592 7.692-33.964 7.692-19.17 0-31.716-2.958-40.828-6.982-1.657-.7-3.314-1.538-4.734-2.248-1.775-.947-3.43-1.894-4.852-2.84-1.065-.7-2.01-1.3-2.958-2.01-10.296-6.982-16.568-13.49-32.78-11.006-5.325.828-11.834 2.603-19.763 5.8-1.538.59-3.077 1.183-4.615 1.656h-.118c-2.485.83-4.97 1.42-7.22 1.894 0-.118-.118-.237-.237-.355l-6.035 1.183c-6.272.355-11.597-.828-15.976-3.077-.7-.355-1.42-.828-2.13-1.183-19.763-12.9-17.396-51.123-1.183-71.24.828-1.065 1.657-2.13 2.604-3.195.592-.7 1.183-1.302 1.775-2.012s1.302-1.538 2.012-2.248c1.065-1.183 2.25-2.367 3.432-3.67 28.64-30.06 80.118-64.14 136.803-42.13 3.432 1.302 6.745 2.84 10.177 4.497 0 0 .12 0 .237.118.7.355 1.42.7 2.012 1.065 2.248 1.183 4.615 2.485 6.864 3.905 1.538.947 3.077 1.893 4.615 2.96 8.166 5.444 16.33 12.19 24.497 20.355 17.87 17.988 21.538 52.543 7.455 78.223z" fill="#edf9f4"/><path d="M60.575 98.55l4.142 4.733 22.367-3.905-26.508-.828z" class="B"/><path d="M64.717 103.283l.7 2.604 21.656-6.5-22.367 3.905zm149.938-14.2l.7 4.26 11.953-5.207-11.006.118-1.657.828z" class="F"/><g class="B"><path d="M215.957 87.308l-1.302 1.775 8.403-.828-9.23 1.894-1.893 2.367 16.45-4.734-12.426-.473zm-113.252 70.294c-5.326.828-11.834 2.603-19.763 5.8-1.538.6-3.077 1.183-4.615 1.656h-.118l-7.456 1.54-6.035 1.183c-6.272.355-11.597-.828-15.976-3.077-.7-.355-1.42-.828-2.13-1.183 29.23-4.497 51.715-6.864 56.094-5.917z"/><path d="M70.87 166.478l-6.035 1.183c-6.272.355-11.597-.828-15.976-3.077 12.2-.6 20.355 0 22.012 1.894zm169.23-4.97l-3.432 3.55c-3.195.118-4.97 0-4.97-.473-.12-.592 2.958-1.657 8.402-3.077z"/></g><path d="M204.24 170.856c4.26-3.077 18.58-7.455 37.75-11.48-.59.7-1.183 1.538-1.893 2.248-1.065 1.184-2.25 2.367-3.432 3.55-.828.828-1.775 1.656-2.722 2.485-3.313 2.722-6.864 5.207-10.887 7.337-12.07.592-19.645-.118-20-2.248-.118-.592.355-1.302 1.183-1.894z" fill="url(#A)"/><g class="B"><path d="M242.82 150.975l5.443-.83c-1.775 3.196-3.787 6.273-6.153 9.23-.592.7-1.184 1.54-1.894 2.25-1.065 1.183-2.248 2.366-3.432 3.55-.828.828-1.775 1.657-2.722 2.485-11.005 1.538-21.183 2.604-29.703 3.195-15.385 1.065-25.325.474-25.8-1.893-.7-4.142 28.047-12.2 64.26-17.988zM97.498 78.313c.118.592-9.822 2.722-22 4.734C63.18 85.06 53.12 86.124 53.12 85.532c-.12-.592 9.822-2.732 22-4.734 12.307-2.012 22.366-3.077 22.366-2.485z"/><path d="M87.794 81.036c.237 1.42-9.586 4.142-21.893 6.154-7.1 1.183-13.61 1.775-17.75 1.775.592-.7 1.183-1.302 1.775-2.012s1.302-1.538 2.012-2.248c3.67-.947 8.166-1.775 13.136-2.604 3.55-.592 6.864-.947 9.822-1.302l4.024-.355c4.852-.355 8.047-.237 8.64.473.237 0 .237.118.237.118z"/><path d="M79.5 79.852c0 .118 0 .237-.118.355l-.355.355c-1.538 1.183-6.982 2.722-14.2 4.142-2.25.473-4.615.947-7.22 1.302-2.722.473-5.325.828-7.692 1.065.592-.7 1.302-1.538 2.012-2.248 1.065-1.183 2.25-2.367 3.432-3.67.473-.118.947-.118 1.42-.237 12.308-2.012 22.485-2.485 22.722-1.065z"/></g><g class="C"><path d="M131.343 99.14c.7-2.367 4.024-7.22 4.024-7.22l3.432-4.38-5.326-3.787s-7.692 10.296-8.875 13.136c-1.065 2.84 0 4.26-.355 8.64 2.84.355 7.1-6.272 7.1-6.39z"/><path d="M129.805 116.182s0-12.544 1.538-17.04l-6.745-2.012c-1.657 4.615.118 14.556.59 18.58l4.616.473z"/></g><path d="M133.7 83.875s.237 9.94-.355 11.36c0 0 2.367-1.657 2.367-4.26s-1.42-6.864-2.012-7.1z" class="E"/><path d="M192.88 70.976s1.42.118 1.42.947-.237 1.775-.7 2.248-2.722.828-2.722.828l-1.775-1.42V72.04l.236-.237 3.55-.828z" fill="url(#B)"/><path d="M156.668 79.615s16.805-5.562 20.947-6.4c4.497-.828 9.94-2.722 11.005-2.96s7.456-1.302 8.166-.828c.7.355-6.154 2.722-6.154 2.722s-.355 1.894 2.367 1.302c2.722-.7 2.248.7.828 1.302s-4.023 2.248-5.917.947-30.887 13.49-30.887 13.49l-4.733-6.272c.118-.237 4.378-3.314 4.378-3.314z" class="C"/><path d="M156.668 79.615c-2.13 5.562.474 9.586.474 9.586s.355-.237 1.065-.592c-2.367-3.077-1.54-8.994-1.54-8.994z" class="E"/><path d="M156.668 79.615l-3.905 2.96-.237.237.12.355 4.615 6.035s-2.84-4.142-.592-9.586z" fill="#eaa486"/><path d="M140.337 79.26l-.7 4.26 1.775 5.562 5.325 1.775 1.657-3.905c0-.237.83-4.024.83-4.024l-.237-.237-3.314-5.444-5.325 2.012z" class="E"/><path d="M158.917 113.224s-1.184 5.917-4.26 6.035c-3.076.237-27.8-1.3-27.8-1.3l2.84-6.864 23.432-9.23 5.8 11.36z" fill="url(#C)"/><path d="M133.7 83.876s2.13 8.52-.355 11.36c0 0-.473 6.627-1.42 9.35l-2.603 7.692s10.06-2.958 14.556-3.195 14.792 5.68 15.384 3.905-4.38-17.75-2.25-23.786c0 0-2.72-4.024-.473-9.586 0 0-7.455 1.657-7.8 2.84-.355 1.302-.947 5.917-4.734 5.562-3.905-.355-4.38-4.38-4.38-4.38l-5.917.237z" class="G"/><path d="M153.473 118.668s5.444-4.024 5.8-6.272-1.065-3.67-3.787-3.787-13.846 6.51-13.846 6.51l-1.065 4.615 12.9-1.065z" class="C"/><g class="H"><path d="M162.112 62.455c2.367-1.42 3.55-4.26 2.958-7.22-.473-2.485-2.248-4.38-4.378-5.09 0-.7-.12-1.42-.237-2.248-1.538-7.692-9.586-12.544-18.106-11.124-2.012-2.367-5.444-3.55-8.876-2.84-3.195.592-5.68 2.722-6.745 5.207-.83 0-1.657.118-2.604.355l-1.42.355c-1.183-.592-2.603-.828-4.024-.473-3.195.592-5.325 3.55-5.207 6.746-2.13 2.96-3.195 6.4-2.72 10.06-3.196 1.42-4.97 4.97-4.26 8.64s3.906 6.272 7.337 6.272c-.118.828-.118 1.657.12 2.485.7 3.67 4.26 6.035 7.8 5.325.12 0 .237 0 .355-.118 1.776 2.248 4.497 3.432 7.338 2.84 4.023-.828 6.627-4.97 5.798-9.112-.473-2.13-1.657-3.787-3.195-4.97 2.012-.7 3.787-1.657 5.325-2.84 1.42.592 2.84.947 4.38 1.065a7.44 7.44 0 0 0-.237 4.26c.83 4.26 4.852 6.982 8.876 6.154 2.367-.473 4.142-2.012 5.207-4.142.7.118 1.302 0 2.012-.118 3.55-.7 5.8-4.26 5.088-7.93-.236-.473-.355-1.065-.59-1.538z" class="D"/><path d="M143.414 82.692c-7.93 1.657-15.74-3.55-17.396-11.48l-1.183-5.917c-.83-3.905 1.775-7.81 5.68-8.64l14.556-2.96c3.905-.828 7.8 1.775 8.64 5.68l1.183 5.917c1.54 7.93-3.55 15.74-11.48 17.396z" class="C"/><path d="M148.03 63.52c-.7.118-1.065.7-.947 1.302s.7.947 1.42.828 1.065-.7.946-1.302-.7-.947-1.42-.828zm-7.456 1.303c-.828.118-1.302.828-1.183 1.657.118.7.946 1.183 1.656 1.065.83-.118 1.302-.828 1.184-1.657-.12-.7-.83-1.183-1.657-1.065zm.828-2.368l-6.035.355a.51.51 0 0 0-.473.473.51.51 0 0 0 .473.473l6.035-.355a.51.51 0 0 0 .474-.473.43.43 0 0 0-.474-.473z" class="D"/></g><path d="M125.07 66.36l-.236-1.065c-.83-3.905 1.775-7.81 5.68-8.64l14.556-2.96c3.905-.828 7.8 1.775 8.64 5.68l.355 2.012s-3.787-4.734-5.8-4.734-3.077 1.302-4.497.947-10.177 1.657-10.77 2.248c-.473.592-2.603.355-3.668.237 0-.118.355 3.905-4.26 6.272z" class="E"/><g class="H"><path d="M146.846 62.1l4.734-1.657c.236-.118.355 0 .473.237s0 .355-.237.473l-4.733 1.657c-.237.118-.355 0-.474-.237-.118-.118 0-.355.237-.473z" class="D"/><path opacity=".43" d="M135.722 68.965c-1.894.355-3.077 2.13-2.722 3.905s2.13 2.84 4.023 2.485 3.077-2.13 2.722-3.905-2.248-2.84-4.023-2.485zm17.396-1.775c.7-.118 1.302 0 1.893.237.12 1.775-.118 3.55-.6 5.207h-.12c-1.538.355-3.077-.592-3.432-2.13s.7-2.96 2.25-3.314z" fill-opacity=".2" fill="#e51685"/><path d="M125.426 67.78a4.91 4.91 0 0 0-3.787 5.917c.593 2.722 3.195 4.38 5.8 3.905 2.722-.592 4.378-3.195 3.787-5.917a4.82 4.82 0 0 0-5.799-3.905zm.474-15.147c-3.432.7-5.68 4.024-4.97 7.574.7 3.432 4.024 5.68 7.456 4.97s5.68-4.024 4.97-7.574-4.023-5.68-7.455-4.97z" class="D"/><path d="M148.74 51.095l-12.19 1.893c-.7.118-1.302.828-1.065 1.657l.473 3.313c.12.828.83 1.302 1.54 1.183l12.19-1.893c.7-.118 1.302-.828 1.065-1.657l-.473-3.314c-.12-.828-.83-1.302-1.54-1.183z" class="G"/><path d="M148.62 49.2l-11.598 1.893 1.066 6.864c.236 1.183 1.3 2.012 2.485 1.775l7.337-1.183c1.183-.237 2.012-1.302 1.775-2.485L148.62 49.2z" class="D"/></g><path d="M123.533 49.083c.828.592 1.538 1.657 1.893 2.96s.355 2.722 0 3.905-.946 2.13-1.893 2.485c-.947.473-1.894.237-2.722-.355s-1.538-1.657-1.893-2.96-.355-2.722 0-3.905.946-2.13 1.893-2.485a2.81 2.81 0 0 1 2.722.355zm-3.67 5.562c.237.947.83 1.775 1.42 2.13.592.473 1.302.592 1.894.237s1.065-.947 1.302-1.775.236-1.894 0-2.84-.83-1.775-1.42-2.13c-.592-.473-1.302-.592-1.894-.237s-1.065.947-1.302 1.775-.236 1.893 0 2.84zm35.977-11.48c.7.473 1.302 1.42 1.657 2.485s.355 2.25 0 3.195c-.237.947-.83 1.775-1.54 2.13s-1.538.237-2.248-.237-1.302-1.42-1.657-2.485-.355-2.248 0-3.195c.237-.947.828-1.775 1.538-2.13s1.54-.237 2.25.237zm-2.96 4.734c.237.828.7 1.42 1.184 1.775s1.065.473 1.656.237.947-.828 1.066-1.538c.236-.7.236-1.538 0-2.367s-.7-1.42-1.184-1.775-1.065-.473-1.657-.237-.946.828-1.065 1.538c-.236.7-.236 1.538 0 2.367zm6.747 15.03c.473.355.946.947 1.065 1.775.236.828.236 1.538 0 2.248s-.592 1.183-1.065 1.42-1.065.118-1.54-.237a2.69 2.69 0 0 1-1.065-1.775c-.236-.828-.236-1.538 0-2.248s.592-1.183 1.065-1.42 1.065-.118 1.54.237zm-2.012 3.195c.118.592.473.947.828 1.302.355.237.7.355 1.065.118.355-.118.592-.592.83-1.065.118-.473.118-1.065 0-1.657s-.474-.947-.83-1.302c-.355-.237-.7-.355-1.065-.118-.355.118-.6.592-.828 1.065-.237.592-.237 1.065 0 1.657zm-35.147 1.42c.828.473 1.538 1.302 2 2.485s.474 2.367.237 3.432-.828 1.893-1.657 2.367-1.775.355-2.603-.118-1.54-1.302-2.012-2.485-.473-2.367-.237-3.432.83-1.893 1.657-2.367 1.775-.355 2.604.118zm-3.077 5.1c.355.828.828 1.42 1.42 1.775s1.3.355 1.775.118c.592-.355.947-.947 1.183-1.657.12-.7.12-1.657-.236-2.485s-.83-1.42-1.42-1.775-1.302-.355-1.776-.118c-.6.355-.946.947-1.183 1.657-.118.828-.118 1.657.237 2.485z" class="G"/><g class="H"><path d="M147.91 72.633s-3.195.473-4.024 1.302 1.54 4.024 2.84 3.55c1.54-.473 1.657-1.657 1.184-4.852z" fill="#e51685" fill-opacity=".2"/><path d="M147.91 72.633s-3.195.473-4.024 1.302v.118c0 .237.12.355.12.473.118.237 3.076-.828 4.023-1.183 0-.237 0-.473-.118-.7z" fill="#fff"/></g><path d="M133.828 107.662c-1.893.828-1.183-1.302-.7-2.604s.83-6.745.83-7.692.473-5.09.473-5.09l-.118.118c-.12 1.065-.474 2.13-1.066 2.84 0 0-.473 6.627-1.42 9.35l-2.603 7.692 1.183-.355 5.326-4.615c.118 0 0-.474-1.894.355z" fill="url(#D)"/><path d="M109.213 138.904l3.55 21.775 117.868-48.993-121.42 27.218z" fill="#ecb14f"/><path d="M216.075 51.568L193 61.627l-3.077-7.337-3.195-7.574-.83-2.13 16.45-1.184s.118 0 .237.118l2.01 1.065 6.864 3.905 4.615 3.077z" class="F"/><path d="M202.585 43.64l-16.568 1.065 6.154-5.68c3.432 1.302 6.745 2.84 10.177 4.497.12 0 .12 0 .237.118zm8.875 4.97l-21.538 5.68-20.118 5.325 13.373-12.544 3.55-.355 17.75-2.012 6.982 3.905z" class="B"/><path d="M191.46 149.673L148.148 175.6l-4.734-2.25-4.852-2.84-1.538-2.485-1.657-2.722 56.094-15.62z" class="F"/><path d="M192.644 149.2l-1.065.592-48.165 23.668-4.852-2.84-2.958-2.012 1.42-.473 36.45-13.254-38.224 10.532-1.065.355 2.366-8.047 56.094-8.52z" class="B"/><path d="M124.953 115.946s13.49-11.834 17.278-11.716c3.905.12 7.8 3.077 5.798 5.444s-6.154 8.284-6.154 8.284h-16.922v-2.012z" class="C"/><path d="M77.38 117.603l31.834 21.3 121.418-27.218-153.252 5.917z" fill="#fad686"/><defs><linearGradient id="A" x1="202.999" y1="167.176" x2="242.005" y2="167.176" gradientUnits="userSpaceOnUse"><stop stop-color="#eefff3"/><stop offset=".245" stop-color="#e9fef0"/><stop offset=".541" stop-color="#dafce5"/><stop offset=".862" stop-color="#c2f9d5"/><stop offset="1" stop-color="#b5f7cc"/></linearGradient><linearGradient id="B" x1="175.847" y1="76.065" x2="208.105" y2="69.994" gradientUnits="userSpaceOnUse"><stop stop-color="#fbe1dc"/><stop offset=".217" stop-color="#fbdcd7"/><stop offset=".48" stop-color="#facfc8"/><stop offset=".764" stop-color="#f8b9b0"/><stop offset="1" stop-color="#f6a296"/></linearGradient><linearGradient id="C" x1="142.441" y1="117.127" x2="151.803" y2="87.55" gradientUnits="userSpaceOnUse"><stop stop-color="#1baa56"/><stop offset="1" stop-color="#38ef7d"/></linearGradient><linearGradient id="D" x1="121.067" y1="108.772" x2="169.165" y2="80.958" gradientUnits="userSpaceOnUse"><stop stop-color="#1baa56"/><stop offset="1" stop-color="#38ef7d"/></linearGradient></defs></svg>